<svg width="50" height="52" viewBox="0 0 50 52" fill="none" xmlns="http://www.w3.org/2000/svg">
<path d="M45.3125 6.46729C47.9004 6.46729 50 8.63881 50 11.3176C50 12.8434 49.3066 14.2783 48.125 15.1978L26.875 31.6889C25.7617 32.5478 24.2383 32.5478 23.125 31.6889L1.875 15.1978C0.694629 14.2783 0 12.8434 0 11.3176C0 8.63881 2.09863 6.46729 4.6875 6.46729H45.3125ZM21.25 34.2757C23.4766 36.0037 26.5234 36.0037 28.75 34.2757L50 17.7847V38.8027C50 42.3697 47.1973 45.2698 43.75 45.2698H6.25C2.79785 45.2698 0 42.3697 0 38.8027V17.7847L21.25 34.2757Z" fill="#FFFA8E"/>
</svg>
