<svg width="50" height="50" viewBox="0 0 50 50" fill="none" xmlns="http://www.w3.org/2000/svg">
<g clip-path="url(#clip0_14_18)">
<path d="M21.9141 48.75C15.1172 42.4805 0 27.2852 0 18.75C0 8.39453 11.1927 0 25 0C38.8021 0 50 8.39453 50 18.75C50 27.2852 34.7656 42.4805 28.0859 48.75C26.4844 50.2441 23.5156 50.2441 21.9141 48.75ZM25 25C29.5964 25 33.3333 22.1973 33.3333 18.75C33.3333 15.3027 29.5964 12.5 25 12.5C20.4036 12.5 16.6667 15.3027 16.6667 18.75C16.6667 22.1973 20.4036 25 25 25Z" fill="#FFFA8E"/>
</g>
<defs>
<clipPath id="clip0_14_18">
<rect width="50" height="50" fill="white"/>
</clipPath>
</defs>
</svg>
