<svg width="50" height="50" viewBox="0 0 50 50" fill="none" xmlns="http://www.w3.org/2000/svg">
<g clip-path="url(#clip0_14_20)">
<path d="M1.84759 34.2969L12.4433 29.7539C13.6913 29.2137 15.1552 29.578 16.0029 30.6308L20.3085 35.8867C27.0712 32.5664 32.5644 27.0674 35.8847 20.3105L30.6298 16.0097C29.58 15.1522 29.2226 13.6963 29.7534 12.4482L34.2954 1.85252C34.8906 0.494121 36.356 -0.249043 37.7906 0.0839647L47.6343 2.35447C49.0259 2.67186 49.9995 3.89744 49.9995 5.32908C49.9995 29.9678 29.9605 50.0068 5.32181 50.0068C3.88919 50.0068 2.66751 49.0334 2.34818 47.6416L0.0776708 37.7978C-0.251138 36.3672 0.489976 34.8828 1.84759 34.2969Z" fill="#FFFA8E"/>
</g>
<defs>
<clipPath id="clip0_14_20">
<rect width="50" height="50" fill="white"/>
</clipPath>
</defs>
</svg>
