<svg width="50" height="50" viewBox="0 0 50 50" fill="none" xmlns="http://www.w3.org/2000/svg">
<g clip-path="url(#clip0_21_3)">
<path d="M50 20.499C45.0864 20.5093 40.2934 19.1685 36.298 16.666V34.1191C36.2966 37.3517 35.1674 40.5068 33.0614 43.1626C30.9554 45.8184 27.973 47.8484 24.5129 48.981C21.0528 50.1136 17.28 50.295 13.6989 49.5008C10.1179 48.7066 6.89927 46.9747 4.47348 44.5367C2.0477 42.0987 0.530362 39.0708 0.124367 35.8578C-0.281627 32.6449 0.443069 29.4001 2.20156 26.5573C3.96004 23.7145 6.6685 21.4091 9.96476 19.9496C13.261 18.49 16.988 17.9458 20.6473 18.3897V27.168C18.9728 26.7071 17.1747 26.721 15.5097 27.2076C13.8448 27.6943 12.3981 28.6288 11.3764 29.8778C10.3547 31.1268 9.81009 32.6263 9.82043 34.1622C9.83077 35.6982 10.3955 37.192 11.434 38.4303C12.4725 39.6687 13.9316 40.5882 15.603 41.0577C17.2743 41.5272 19.0725 41.5225 20.7407 41.0444C22.4089 40.5663 23.8618 39.6392 24.8919 38.3955C25.9219 37.1518 26.4766 35.6551 26.4765 34.1191V0H36.298C36.2911 0.725723 36.3606 1.45046 36.5056 2.16504C36.8468 3.76024 37.5564 5.27774 38.591 6.62474C39.6255 7.97174 40.9632 9.11991 42.5223 9.99902C44.7404 11.2823 47.3409 11.9663 50 11.9658V20.499Z" fill="#FFFA8E"/>
</g>
<defs>
<clipPath id="clip0_21_3">
<rect width="50" height="50" fill="white"/>
</clipPath>
</defs>
</svg>
